<?xml version="1.0" encoding="UTF-8"?>
<svg width="74px" height="72px" viewBox="0 0 74 72" version="1.1" xmlns="http://www.w3.org/2000/svg" xmlns:xlink="http://www.w3.org/1999/xlink">
    <!-- Generator: Sketch 50 (54983) - http://www.bohemiancoding.com/sketch -->
    <title>Logo Hospitalisation</title>
    <desc>Created with Sketch.</desc>
    <defs></defs>
    <g id="Logo-Hospitalisation" stroke="none" stroke-width="1" fill="none" fill-rule="evenodd">
        <g id="healthcare-and-medical" transform="translate(14.000000, 9.000000)" fill-rule="nonzero">
            <path d="M44.2914317,14.0775049 L44.2904135,14.0278363 C44.2659774,12.734425 44.2425595,11.5119688 44.2425595,10.3361404 C44.2425595,8.55415205 42.7865758,7.10565302 40.9976504,7.10565302 C34.0740915,7.10565302 28.8193139,5.14019493 24.4605263,0.921403509 C23.8262061,0.307134503 23.012688,0 22.1991698,0 C21.3846335,0 20.5700971,0.307134503 19.9357769,0.921403509 C15.5780075,5.14019493 10.3232299,7.10565302 3.40068922,7.10565302 C1.61176378,7.10565302 0.155780075,8.55415205 0.155780075,10.3361404 C0.155780075,11.5373099 0.132362155,12.7719298 0.106907895,14.0785185 C-0.0101817043,20.1806628 -0.155780075,27.7748928 2.40390038,34.668694 C3.81203008,38.4597271 5.94306078,41.7540741 8.73895677,44.4594932 C11.9237939,47.5419883 16.0942199,49.9869006 21.1351817,51.7263158 C21.4783051,51.8449123 21.835683,51.9047173 22.1981516,51.9047173 L22.1991698,51.9047173 C22.5616385,51.9047173 22.9190163,51.8449123 23.2611216,51.7263158 C28.3020833,49.9869006 32.4735276,47.5419883 35.6583647,44.4594932 C38.4542607,41.7530604 40.5852914,38.4587135 41.9934211,34.668694 C44.5541197,27.7748928 44.4085213,20.1796491 44.2914317,14.0775049 Z M39.1282895,33.6134893 C36.4291197,40.8833528 30.9116541,45.86846 22.2592419,48.8536452 C22.2398966,48.8607407 22.2205514,48.8647953 22.1991698,48.8647953 C22.1777882,48.8647953 22.1564066,48.8607407 22.1360432,48.8536452 C13.4856673,45.86846 7.96921992,40.8833528 5.26903195,33.6145029 C2.90993108,27.2589474 3.0433114,20.2881092 3.16141917,14.1362963 C3.18687343,12.8145029 3.21029135,11.565692 3.21029135,10.3361404 C3.21029135,10.2317349 3.29581767,10.1465887 3.40068922,10.1465887 C11.1693296,10.1465887 17.1001723,7.90744639 22.0657895,3.10074074 C22.1024436,3.06526316 22.1502976,3.04701754 22.1981516,3.04701754 L22.1991698,3.04701754 C22.2470238,3.04701754 22.2938596,3.06526316 22.331532,3.10074074 C27.296131,7.90744639 33.2279919,10.1465887 40.9976504,10.1465887 C41.1025219,10.1465887 41.1880482,10.2317349 41.1880482,10.3361404 C41.1880482,11.5403509 41.2114662,12.7769981 41.2359023,14.085614 L41.2369204,14.1352827 C41.2633929,15.5077583 41.2908835,16.9217934 41.2908835,18.3601559 C41.2908835,23.3675634 40.9620144,28.6760234 39.1282895,33.6134893 Z" id="Shape" fill="#04DE83"></path>
            <path d="M32.7067904,21.9076101 L32.7067904,27.9763041 C32.7067904,28.5358363 32.2516682,28.9899493 31.68862,28.9899493 L26.2657425,28.9899493 L26.2657425,34.3896374 C26.2657425,34.9491696 25.8096021,35.4032827 25.2475721,35.4032827 L19.1517857,35.4032827 C18.5897556,35.4032827 18.1336153,34.9491696 18.1336153,34.3896374 L18.1336153,28.9899493 L12.7097196,28.9899493 C12.1466714,28.9899493 11.6915492,28.5358363 11.6915492,27.9763041 L11.6915492,21.9076101 C11.6915492,21.348078 12.1466714,20.8939649 12.7097196,20.8939649 L18.1336153,20.8939649 L18.1336153,15.4942768 C18.1336153,14.9347446 18.5897556,14.4806316 19.1517857,14.4806316 L25.2476739,14.4806316 C25.8097039,14.4806316 26.2658443,14.9347446 26.2658443,15.4942768 L26.2658443,20.8939649 L31.6887218,20.8939649 C32.2516682,20.8939649 32.7067904,21.348078 32.7067904,21.9076101 Z" id="Shape" fill="#FF0D6D"></path>
            <path d="M32.7067904,21.9076101 L32.7067904,27.9763041 C32.7067904,28.5358363 32.2516682,28.9899493 31.68862,28.9899493 L26.2657425,28.9899493 L26.2657425,34.3896374 C26.2657425,34.9491696 25.8096021,35.4032827 25.2475721,35.4032827 L22.1991698,35.4032827 L22.1991698,14.4806316 L25.2475721,14.4806316 C25.8096021,14.4806316 26.2657425,14.9347446 26.2657425,15.4942768 L26.2657425,20.8939649 L31.68862,20.8939649 C32.2516682,20.8939649 32.7067904,21.348078 32.7067904,21.9076101 Z" id="Shape" fill="#FF0D6D"></path>
            <path d="M41.9934211,34.668694 C40.5852914,38.4587135 38.4542607,41.7530604 35.6583647,44.4594932 C32.4735276,47.5419883 28.3020833,49.9869006 23.2611216,51.7263158 C22.9190163,51.8449123 22.5616385,51.9047173 22.1991698,51.9047173 L22.1991698,48.8647953 C22.2205514,48.8647953 22.2398966,48.8607407 22.2592419,48.8536452 C30.9116541,45.86846 36.4291197,40.8833528 39.1282895,33.6134893 C40.9620144,28.6760234 41.2908835,23.3675634 41.2908835,18.3601559 C41.2908835,16.9217934 41.2633929,15.5077583 41.2369204,14.1352827 L41.2359023,14.085614 C41.2114662,12.7769981 41.1880482,11.5403509 41.1880482,10.3361404 C41.1880482,10.2317349 41.1025219,10.1465887 40.9976504,10.1465887 C33.2279919,10.1465887 27.296131,7.90744639 22.331532,3.10074074 C22.2938596,3.06526316 22.2470238,3.04701754 22.1991698,3.04701754 L22.1991698,0 C23.012688,0 23.8262061,0.307134503 24.4605263,0.921403509 C28.8193139,5.14019493 34.0740915,7.10565302 40.9976504,7.10565302 C42.7865758,7.10565302 44.2425595,8.55415205 44.2425595,10.3361404 C44.2425595,11.5119688 44.2659774,12.734425 44.2904135,14.0278363 L44.2914317,14.0775049 C44.4085213,20.1796491 44.5541197,27.7748928 41.9934211,34.668694 Z" id="Shape" fill="#04DE83"></path>
        </g>
    </g>
</svg>