<?xml version="1.0" encoding="UTF-8"?>
<svg width="74px" height="72px" viewBox="0 0 74 72" version="1.1" xmlns="http://www.w3.org/2000/svg" xmlns:xlink="http://www.w3.org/1999/xlink">
    <!-- Generator: Sketch 50 (54983) - http://www.bohemiancoding.com/sketch -->
    <title>FavIcon Habitation</title>
    <desc>Created with Sketch.</desc>
    <defs>
        <linearGradient x1="-12.9979265%" y1="50%" x2="107.809344%" y2="50%" id="linearGradient-1">
            <stop stop-color="#4278A6" offset="0%"></stop>
            <stop stop-color="#60C991" offset="100%"></stop>
        </linearGradient>
    </defs>
    <g id="FavIcon-Habitation" stroke="none" stroke-width="1" fill="none" fill-rule="evenodd">
        <rect id="Rectangle-5" fill="url(#linearGradient-1)" x="4" y="2" width="67" height="67" rx="4"></rect>
        <g id="security" transform="translate(13.000000, 13.000000)" fill="#FFFFFF" fill-rule="nonzero">
            <path d="M47.6614533,36.3243041 C47.2967683,36.8458343 46.7146786,37.125115 46.123214,37.125115 C45.7522478,37.125115 45.3776254,37.015334 45.0505339,36.7865844 L43.312421,35.5713993 L43.312421,46.1250037 C43.312421,47.1605641 42.4729893,48 41.437434,48 C40.4018787,48 39.562447,47.1605641 39.562447,46.1250037 L39.562447,23.437548 L35.8124731,23.437548 L35.8124731,26.729104 C35.8124731,27.4280089 35.4237882,28.0689764 34.8038238,28.3919445 C34.1838594,28.7146314 33.4358333,28.6661628 32.8631185,28.2657573 L24.0000551,22.0689881 L8.43766313,32.9495919 L8.43766313,46.1249099 C8.43766313,47.1604704 7.59823146,47.9999063 6.56267615,47.9999063 C5.52712084,47.9999063 4.68768917,47.1604704 4.68768917,46.1249099 L4.68768917,35.5713993 L2.94957624,36.7865844 C2.10086338,37.3798332 0.931902751,37.1727399 0.338469372,36.3242103 C-0.254870258,35.4754932 -0.0478716953,34.3066205 0.800841161,33.7130904 L22.9256875,18.2443706 C23.5708706,17.7932465 24.4292396,17.7932465 25.0744226,18.2443706 L32.0624991,23.1301423 L32.0624991,21.5622704 C32.0624991,20.5267099 32.9019308,19.687274 33.9374861,19.687274 L41.437434,19.687274 C42.4729893,19.687274 43.312421,20.5267099 43.312421,21.5622704 L43.312421,30.9954707 L47.199269,33.7129967 C48.0478881,34.3066205 48.2548867,35.475587 47.6614533,36.3243041 Z M21.7499769,33.5624344 L19.87499,33.5624344 C19.3572123,33.5624344 18.9374965,33.9821524 18.9374965,34.4999326 L18.9374965,36.374929 C18.9374965,36.8927092 19.3572123,37.3124271 19.87499,37.3124271 L21.7499769,37.3124271 C22.2677546,37.3124271 22.6874704,36.8927092 22.6874704,36.374929 L22.6874704,34.4999326 C22.6874704,33.9821524 22.2677546,33.5624344 21.7499769,33.5624344 Z M28.218682,33.5624344 L26.343695,33.5624344 C25.8259174,33.5624344 25.4062016,33.9821524 25.4062016,34.4999326 L25.4062016,36.374929 C25.4062016,36.8927092 25.8259174,37.3124271 26.343695,37.3124271 L28.218682,37.3124271 C28.7364597,37.3124271 29.1561755,36.8927092 29.1561755,36.374929 L29.1561755,34.4999326 C29.1561755,33.9821524 28.7364597,33.5624344 28.218682,33.5624344 Z M28.218682,40.1249216 L26.343695,40.1249216 C25.8259174,40.1249216 25.4062016,40.5446396 25.4062016,41.0624198 L25.4062016,42.9374161 C25.4062016,43.4551964 25.8259174,43.8749143 26.343695,43.8749143 L28.218682,43.8749143 C28.7364597,43.8749143 29.1561755,43.4551964 29.1561755,42.9374161 L29.1561755,41.0624198 C29.1561755,40.5446396 28.7364597,40.1249216 28.218682,40.1249216 Z M21.7499769,40.1249216 L19.87499,40.1249216 C19.3572123,40.1249216 18.9374965,40.5446396 18.9374965,41.0624198 L18.9374965,42.9374161 C18.9374965,43.4551964 19.3572123,43.8749143 19.87499,43.8749143 L21.7499769,43.8749143 C22.2677546,43.8749143 22.6874704,43.4551964 22.6874704,42.9374161 L22.6874704,41.0624198 C22.6874704,40.5446396 22.2677546,40.1249216 21.7499769,40.1249216 Z M5.25187275,25.969168 C5.60821403,25.969168 5.96868028,25.8677307 6.28770931,25.6556686 C7.15020332,25.0826698 7.38495169,23.9189533 6.81186192,23.0563612 C4.78031353,19.9984297 3.75019568,16.9566231 3.75019568,14.0155039 C3.75019568,11.1601657 5.40065297,3.74989893 12.9376319,3.74989893 C15.5307389,3.74989893 17.8996912,4.56420984 19.9784892,6.17005045 C21.5824469,7.40914178 22.4097849,8.68085805 22.4129723,8.68563929 C22.75422,9.24035695 23.3464346,9.58216878 23.9976176,9.58216878 C24.6488006,9.58216878 25.2410152,9.24813819 25.5821691,8.69351427 C25.590419,8.68085805 26.4176633,7.40914178 28.0216209,6.17005045 C30.100419,4.56411609 32.4692775,3.74989893 35.0624783,3.74989893 C42.5994572,3.74989893 44.2499145,11.1601657 44.2499145,14.0155039 C44.2499145,14.4901592 44.2231021,14.972502 44.1701338,15.4493136 C44.0558533,16.4785928 44.7975982,17.4054973 45.8268723,17.5196845 C46.8572714,17.6338718 47.7830462,16.8920295 47.8972329,15.8629378 C47.9653887,15.2493452 47.9998884,14.6277839 47.9998884,14.0155039 C47.9998884,10.9669473 46.9913329,7.6824225 45.3019697,5.22936479 C43.6589186,2.84380695 40.5488777,0 35.0623845,0 C29.5813288,0 25.9178855,2.76721335 23.9999613,4.74430323 C22.0820371,2.76721335 18.4185938,0 12.9375381,0 C7.45113873,0 4.34100408,2.84380695 2.69804674,5.22945854 C1.00868347,7.68251625 0.000127971384,10.9670411 0.000127971384,14.0155976 C0.000127971384,17.7079342 1.24099436,21.4478956 3.68841486,25.1315134 C4.04934985,25.6749811 4.64484572,25.9692618 5.25187275,25.969168 Z" id="Shape"></path>
        </g>
    </g>
</svg>