<?xml version="1.0" encoding="UTF-8"?>
<svg width="74px" height="72px" viewBox="0 0 74 72" version="1.1" xmlns="http://www.w3.org/2000/svg" xmlns:xlink="http://www.w3.org/1999/xlink">
    <!-- Generator: Sketch 50 (54983) - http://www.bohemiancoding.com/sketch -->
    <title>Logo Habitation</title>
    <desc>Created with Sketch.</desc>
    <defs>
        <linearGradient x1="-0.000124015238%" y1="49.9999023%" x2="99.9999629%" y2="49.9999023%" id="linearGradient-1">
            <stop stop-color="#3D6CA9" offset="0%"></stop>
            <stop stop-color="#65D78D" offset="100%"></stop>
        </linearGradient>
    </defs>
    <g id="Logo-Habitation" stroke="none" stroke-width="1" fill="none" fill-rule="evenodd">
        <g id="security" transform="translate(11.000000, 9.000000)" fill="url(#linearGradient-1)" fill-rule="nonzero">
            <path d="M49.6473472,37.8378167 C49.267467,38.3810774 48.6611235,38.6719948 48.0450145,38.6719948 C47.6585914,38.6719948 47.2683598,38.5576395 46.9276395,38.3193588 L45.1171052,37.0535409 L45.1171052,48.0468788 C45.1171052,49.1255876 44.2426972,50 43.1639937,50 C42.0852903,50 41.2108823,49.1255876 41.2108823,48.0468788 L41.2108823,24.4141125 L37.3046594,24.4141125 L37.3046594,27.8428167 C37.3046594,28.5708426 36.8997794,29.2385171 36.2539831,29.5749422 C35.6081868,29.9110744 34.828993,29.8605862 34.2324151,29.4434972 L25.0000574,22.9885293 L8.78923243,34.3224916 L8.78923243,48.0467812 C8.78923243,49.12549 7.91482444,49.9999023 6.83612099,49.9999023 C5.75741755,49.9999023 4.88300955,49.12549 4.88300955,48.0467812 L4.88300955,37.0535409 L3.07247525,38.3193588 C2.18839936,38.9373263 0.970732033,38.7216041 0.352572263,37.8377191 C-0.265489852,36.9536388 -0.0498663493,35.736063 0.834209543,35.1178025 L23.8809245,19.0045527 C24.5529902,18.5346318 25.4471246,18.5346318 26.1191902,19.0045527 L33.3984366,24.0938983 L33.3984366,22.4606983 C33.3984366,21.3819895 34.2728445,20.5075771 35.351548,20.5075771 L43.1639937,20.5075771 C44.2426972,20.5075771 45.1171052,21.3819895 45.1171052,22.4606983 L45.1171052,32.2869487 L49.1659052,35.1177048 C50.0498834,35.736063 50.2655069,36.9537364 49.6473472,37.8378167 Z M22.656226,34.9608692 L20.7031145,34.9608692 C20.1637628,34.9608692 19.7265588,35.3980754 19.7265588,35.9374298 L19.7265588,37.890551 C19.7265588,38.4299054 20.1637628,38.8671116 20.7031145,38.8671116 L22.656226,38.8671116 C23.1955777,38.8671116 23.6327817,38.4299054 23.6327817,37.890551 L23.6327817,35.9374298 C23.6327817,35.3980754 23.1955777,34.9608692 22.656226,34.9608692 Z M29.3944604,34.9608692 L27.441349,34.9608692 C26.9019973,34.9608692 26.4647933,35.3980754 26.4647933,35.9374298 L26.4647933,37.890551 C26.4647933,38.4299054 26.9019973,38.8671116 27.441349,38.8671116 L29.3944604,38.8671116 C29.9338122,38.8671116 30.3710162,38.4299054 30.3710162,37.890551 L30.3710162,35.9374298 C30.3710162,35.3980754 29.9338122,34.9608692 29.3944604,34.9608692 Z M29.3944604,41.7967934 L27.441349,41.7967934 C26.9019973,41.7967934 26.4647933,42.2339995 26.4647933,42.773354 L26.4647933,44.7264751 C26.4647933,45.2658296 26.9019973,45.7030357 27.441349,45.7030357 L29.3944604,45.7030357 C29.9338122,45.7030357 30.3710162,45.2658296 30.3710162,44.7264751 L30.3710162,42.773354 C30.3710162,42.2339995 29.9338122,41.7967934 29.3944604,41.7967934 Z M22.656226,41.7967934 L20.7031145,41.7967934 C20.1637628,41.7967934 19.7265588,42.2339995 19.7265588,42.773354 L19.7265588,44.7264751 C19.7265588,45.2658296 20.1637628,45.7030357 20.7031145,45.7030357 L22.656226,45.7030357 C23.1955777,45.7030357 23.6327817,45.2658296 23.6327817,44.7264751 L23.6327817,42.773354 C23.6327817,42.2339995 23.1955777,41.7967934 22.656226,41.7967934 Z M5.47070079,27.0512167 C5.84188961,27.0512167 6.21737529,26.9455528 6.5496972,26.7246548 C7.44812846,26.127781 7.69265801,24.9155763 7.0956895,24.0170429 C4.97949326,20.8316976 3.90645384,17.6631491 3.90645384,14.5994832 C3.90645384,11.6251726 5.62568018,3.90614471 13.4766999,3.90614471 C16.177853,3.90614471 18.6455116,4.75438525 20.8109263,6.42713588 C22.4817155,7.71785602 23.3435259,9.04256046 23.3468462,9.04754092 C23.7023125,9.62537183 24.3192027,9.98142582 24.9975183,9.98142582 C25.6758339,9.98142582 26.2927242,9.63347728 26.6480928,9.05574403 C26.6566865,9.04256046 27.5183993,7.71785602 29.1891884,6.42713588 C31.3546031,4.75428759 33.8221641,3.90614471 36.5234149,3.90614471 C44.3744346,3.90614471 46.0936609,11.6251726 46.0936609,14.5994832 C46.0936609,15.0939158 46.0657314,15.5963563 46.010556,16.093035 C45.8915139,17.1652008 46.6641647,18.1307263 47.7363253,18.2496714 C48.8096577,18.3686165 49.7740064,17.5958641 49.8929509,16.5238935 C49.9639465,15.8847346 49.9998838,15.2372749 49.9998838,14.5994832 C49.9998838,11.4239035 48.9493051,8.00252343 47.1895517,5.44725499 C45.4780402,2.9622989 42.2384142,0 36.5233172,0 C30.8138842,0 26.9977974,2.8825139 24.9999597,4.94198254 C23.002122,2.8825139 19.1860352,0 13.4766022,0 C7.76160285,0 4.52187925,2.9622989 2.81046535,5.44735264 C1.05071195,8.00262109 0.000133303525,11.4240011 0.000133303525,14.5995809 C0.000133303525,18.4457648 1.29270245,22.3415579 3.84209881,26.1786598 C4.21807277,26.744772 4.83838096,27.0513144 5.47070079,27.0512167 Z" id="Shape"></path>
        </g>
    </g>
</svg>