<?xml version="1.0" encoding="UTF-8"?>
<svg width="226px" height="72px" viewBox="0 0 226 72" version="1.1" xmlns="http://www.w3.org/2000/svg" xmlns:xlink="http://www.w3.org/1999/xlink">
    <!-- Generator: Sketch 50 (54983) - http://www.bohemiancoding.com/sketch -->
    <title>Logo Complet Habitation</title>
    <desc>Created with Sketch.</desc>
    <defs>
        <linearGradient x1="-0.000124015238%" y1="49.9999023%" x2="99.9999629%" y2="49.9999023%" id="linearGradient-1">
            <stop stop-color="#3D6CA9" offset="0%"></stop>
            <stop stop-color="#65D78D" offset="100%"></stop>
        </linearGradient>
        <polygon id="path-2" points="5.12927721 0.363258983 5.12927721 9.1821237 0.217272333 9.1821237 0.217272333 0.363258983"></polygon>
    </defs>
    <g id="Logo-Complet-Habitation" stroke="none" stroke-width="1" fill="none" fill-rule="evenodd">
        <text id="Devis-" font-family="Arial-BoldMT, Arial" font-size="17" font-weight="bold" fill="#3D6CA9">
            <tspan x="75" y="22">Devis-</tspan>
        </text>
        <text id="Assurance" font-family="Arial-BoldMT, Arial" font-size="17" font-weight="bold" fill="#65D78D">
            <tspan x="127" y="22">Assurance</tspan>
        </text>
        <text id="Habitation.be" font-family="Arial-BoldMT, Arial" font-size="17" font-weight="bold" fill="#3D6CA9">
            <tspan x="75" y="41">Habitation.be</tspan>
        </text>
        <g id="security" transform="translate(11.000000, 9.000000)" fill="url(#linearGradient-1)" fill-rule="nonzero">
            <path d="M49.6473472,37.8378167 C49.267467,38.3810774 48.6611235,38.6719948 48.0450145,38.6719948 C47.6585914,38.6719948 47.2683598,38.5576395 46.9276395,38.3193588 L45.1171052,37.0535409 L45.1171052,48.0468788 C45.1171052,49.1255876 44.2426972,50 43.1639937,50 C42.0852903,50 41.2108823,49.1255876 41.2108823,48.0468788 L41.2108823,24.4141125 L37.3046594,24.4141125 L37.3046594,27.8428167 C37.3046594,28.5708426 36.8997794,29.2385171 36.2539831,29.5749422 C35.6081868,29.9110744 34.828993,29.8605862 34.2324151,29.4434972 L25.0000574,22.9885293 L8.78923243,34.3224916 L8.78923243,48.0467812 C8.78923243,49.12549 7.91482444,49.9999023 6.83612099,49.9999023 C5.75741755,49.9999023 4.88300955,49.12549 4.88300955,48.0467812 L4.88300955,37.0535409 L3.07247525,38.3193588 C2.18839936,38.9373263 0.970732033,38.7216041 0.352572263,37.8377191 C-0.265489852,36.9536388 -0.0498663493,35.736063 0.834209543,35.1178025 L23.8809245,19.0045527 C24.5529902,18.5346318 25.4471246,18.5346318 26.1191902,19.0045527 L33.3984366,24.0938983 L33.3984366,22.4606983 C33.3984366,21.3819895 34.2728445,20.5075771 35.351548,20.5075771 L43.1639937,20.5075771 C44.2426972,20.5075771 45.1171052,21.3819895 45.1171052,22.4606983 L45.1171052,32.2869487 L49.1659052,35.1177048 C50.0498834,35.736063 50.2655069,36.9537364 49.6473472,37.8378167 Z M22.656226,34.9608692 L20.7031145,34.9608692 C20.1637628,34.9608692 19.7265588,35.3980754 19.7265588,35.9374298 L19.7265588,37.890551 C19.7265588,38.4299054 20.1637628,38.8671116 20.7031145,38.8671116 L22.656226,38.8671116 C23.1955777,38.8671116 23.6327817,38.4299054 23.6327817,37.890551 L23.6327817,35.9374298 C23.6327817,35.3980754 23.1955777,34.9608692 22.656226,34.9608692 Z M29.3944604,34.9608692 L27.441349,34.9608692 C26.9019973,34.9608692 26.4647933,35.3980754 26.4647933,35.9374298 L26.4647933,37.890551 C26.4647933,38.4299054 26.9019973,38.8671116 27.441349,38.8671116 L29.3944604,38.8671116 C29.9338122,38.8671116 30.3710162,38.4299054 30.3710162,37.890551 L30.3710162,35.9374298 C30.3710162,35.3980754 29.9338122,34.9608692 29.3944604,34.9608692 Z M29.3944604,41.7967934 L27.441349,41.7967934 C26.9019973,41.7967934 26.4647933,42.2339995 26.4647933,42.773354 L26.4647933,44.7264751 C26.4647933,45.2658296 26.9019973,45.7030357 27.441349,45.7030357 L29.3944604,45.7030357 C29.9338122,45.7030357 30.3710162,45.2658296 30.3710162,44.7264751 L30.3710162,42.773354 C30.3710162,42.2339995 29.9338122,41.7967934 29.3944604,41.7967934 Z M22.656226,41.7967934 L20.7031145,41.7967934 C20.1637628,41.7967934 19.7265588,42.2339995 19.7265588,42.773354 L19.7265588,44.7264751 C19.7265588,45.2658296 20.1637628,45.7030357 20.7031145,45.7030357 L22.656226,45.7030357 C23.1955777,45.7030357 23.6327817,45.2658296 23.6327817,44.7264751 L23.6327817,42.773354 C23.6327817,42.2339995 23.1955777,41.7967934 22.656226,41.7967934 Z M5.47070079,27.0512167 C5.84188961,27.0512167 6.21737529,26.9455528 6.5496972,26.7246548 C7.44812846,26.127781 7.69265801,24.9155763 7.0956895,24.0170429 C4.97949326,20.8316976 3.90645384,17.6631491 3.90645384,14.5994832 C3.90645384,11.6251726 5.62568018,3.90614471 13.4766999,3.90614471 C16.177853,3.90614471 18.6455116,4.75438525 20.8109263,6.42713588 C22.4817155,7.71785602 23.3435259,9.04256046 23.3468462,9.04754092 C23.7023125,9.62537183 24.3192027,9.98142582 24.9975183,9.98142582 C25.6758339,9.98142582 26.2927242,9.63347728 26.6480928,9.05574403 C26.6566865,9.04256046 27.5183993,7.71785602 29.1891884,6.42713588 C31.3546031,4.75428759 33.8221641,3.90614471 36.5234149,3.90614471 C44.3744346,3.90614471 46.0936609,11.6251726 46.0936609,14.5994832 C46.0936609,15.0939158 46.0657314,15.5963563 46.010556,16.093035 C45.8915139,17.1652008 46.6641647,18.1307263 47.7363253,18.2496714 C48.8096577,18.3686165 49.7740064,17.5958641 49.8929509,16.5238935 C49.9639465,15.8847346 49.9998838,15.2372749 49.9998838,14.5994832 C49.9998838,11.4239035 48.9493051,8.00252343 47.1895517,5.44725499 C45.4780402,2.9622989 42.2384142,0 36.5233172,0 C30.8138842,0 26.9977974,2.8825139 24.9999597,4.94198254 C23.002122,2.8825139 19.1860352,0 13.4766022,0 C7.76160285,0 4.52187925,2.9622989 2.81046535,5.44735264 C1.05071195,8.00262109 0.000133303525,11.4240011 0.000133303525,14.5995809 C0.000133303525,18.4457648 1.29270245,22.3415579 3.84209881,26.1786598 C4.21807277,26.744772 4.83838096,27.0513144 5.47070079,27.0512167 Z" id="Shape"></path>
        </g>
        <text id="by" font-family="Nunito-Bold, Nunito" font-size="17" font-weight="bold" fill="#3E8BDE">
            <tspan x="75" y="62">by</tspan>
        </text>
        <g id="logo" transform="translate(102.000000, 48.000000)">
            <g id="Group" fill-rule="nonzero">
                <g id="Group-3" fill="#939597">
                    <path d="M3.81473655,0.133644492 C3.81473655,0.133644492 3.48717511,0.231852096 2.97903954,0.52946221 C2.47487661,0.821471133 1.78977841,1.3513441 1.26900266,2.20571291 C1.00753134,2.6295366 0.804204885,3.13625796 0.673108076,3.69189642 C0.546345049,4.24604122 0.493617406,4.86515986 0.521786968,5.48539879 C0.581376424,6.73894601 1.02342186,8.03394211 1.67132179,9.21392702 C1.99093798,9.80802701 2.35208621,10.3823361 2.72840267,10.9394682 C3.10580257,11.4876384 3.49187003,12.0582134 3.79523455,12.6571678 C4.09498758,13.2501475 4.33876264,13.9099682 4.27411712,14.5888329 C4.24450294,14.9230375 4.13110241,15.2396917 3.97183604,15.502201 C3.80101292,15.752761 3.6106878,15.9771822 3.38099752,16.1411105 C2.89380856,16.4816631 2.35208621,16.4622456 1.94362756,16.3782277 C1.52505676,16.2919693 1.1891889,16.1411105 0.921578059,16.0074286 C0.653244924,15.8733734 0.458586026,15.7396916 0.326405773,15.6496991 C0.194947816,15.5582129 0.128496541,15.5044414 0.128496541,15.5044414 C0.128496541,15.5044414 0.421387758,15.6833062 0.968527332,15.894658 C1.24119425,15.9973465 1.58211818,16.1071299 1.9761309,16.145218 C2.36328181,16.1818125 2.82627384,16.1347625 3.1718927,15.8520889 C3.51245549,15.5477573 3.81401426,15.0768836 3.82484871,14.5544789 C3.84904563,14.0272198 3.62477258,13.462246 3.33079792,12.9174366 C3.03248948,12.368893 2.64858891,11.8476085 2.25818767,11.2815145 C1.87212021,10.7199014 1.48821964,10.1332697 1.15415752,9.51153714 C0.822623443,8.88868435 0.535871749,8.23334461 0.3311007,7.55709376 C0.125607355,6.88121634 0.0140125514,6.18256075 0.00137236329,5.50444284 C-0.013073566,4.82147054 0.0775746405,4.17583959 0.245869717,3.57427134 C0.413803645,2.97606381 0.674913817,2.44133647 0.988029336,2.00780405 C1.29536648,1.5679236 1.65326438,1.23259878 1.99238257,0.978304567 C2.33258421,0.724010355 2.65508958,0.547012618 2.92739534,0.423039522 C3.19897882,0.296079122 3.42505761,0.23110527 3.57782331,0.188162781 C3.73131131,0.146713945 3.81473655,0.133644492 3.81473655,0.133644492" id="Fill-1"></path>
                </g>
                <path d="M4.73738969,0.353480049 C4.14036437,0.611893958 3.47716449,1.03214665 2.83723478,1.90886771 C2.52599623,2.35024622 2.25802567,2.8983855 2.08095421,3.52310584 C2.04241298,3.68456738 1.9900551,3.83093905 1.96205817,4.01126291 C1.93624283,4.17196999 1.91042748,4.3349405 1.88424854,4.49942002 C1.85334284,4.84761859 1.83988978,5.21279328 1.86934108,5.56891404 C1.91988099,6.28794606 2.09840683,7.011505 2.36310503,7.69318958 C2.62707604,8.37676037 2.97285624,9.0214748 3.34917855,9.63110527 C3.73240918,10.2362088 4.12254817,10.8050967 4.55050113,11.3622899 C4.97881775,11.9194831 5.62601938,12.8195934 5.96234608,13.5420206 C6.32557892,14.322921 6.52882932,15.09854 6.60627534,16.4068311 C6.60627534,16.4068311 8.73222365,15.5716072 9.14708719,11.8036684 L7.16694102,11.8036684 C6.3281241,11.8036684 5.69401189,11.20196 5.69401189,11.20196 L9.46632485,11.20196 C11.2155872,11.20196 11.0996,8.12287344 11.0996,8.12287344 C11.0996,8.12287344 7.36037433,8.12211896 7.14039851,8.12211896 C6.28849208,8.12211896 5.56238999,7.52191965 5.56238999,7.52191965 L11.4828306,7.52191965 C13.1793716,7.52191965 13.2844509,4.21308983 13.2844509,4.21308983 L7.13239936,4.21308983 C6.13796316,4.21308983 5.33077906,3.61289053 5.33077906,3.61289053 L13.6280496,3.61289053 C15.2984115,3.61289053 15.6111045,0 15.6111045,0 L6.65245211,0 C6.33285083,0 5.2893291,0.114305713 4.73738969,0.353480049" id="Fill-4" fill="#3680DA"></path>
            </g>
            <g id="Group-2" transform="translate(17.088078, 3.551692)">
                <path d="M0.0534504832,7.98489163 C0.0534504832,7.8879479 0.0897938751,7.78884021 0.163306653,7.68800141 C0.236406409,7.58716261 0.315701096,7.53652681 0.40036467,7.53652681 C0.461900657,7.53652681 0.539130383,7.58889377 0.631640826,7.69406039 L0.955427378,8.04548148 C1.07106546,8.17445127 1.25402138,8.29000474 1.50470818,8.39084359 C1.75539502,8.49168239 2.04614216,8.54231819 2.37777558,8.54231819 C2.92540444,8.54231819 3.34913533,8.39906648 3.64979429,8.11213031 C3.95045326,7.82519414 4.10078274,7.41145209 4.10078274,6.87003857 C4.10078274,6.50649952 4.02933492,6.19749134 3.88685231,5.94301403 C3.7443697,5.68853667 3.56100075,5.4924853 3.33757151,5.35529257 C3.12157612,5.20987695 2.87501925,5.08090716 2.59748792,4.9675176 L1.76489383,4.62821447 C1.4873625,4.51482491 1.23874066,4.37979614 1.01902833,4.22226256 C0.799315987,4.06472898 0.618012048,3.84271049 0.475529435,3.55577432 C0.333046822,3.26927095 0.261599005,2.92737111 0.261599005,2.531806 C0.261599005,2.10940826 0.33676377,1.74586921 0.487093252,1.4411889 C0.637422735,1.13650855 0.839789348,0.90713271 1.09419309,0.753061398 C1.34859683,0.598557333 1.60878244,0.486898881 1.87475,0.417653388 C2.14071756,0.348840598 2.41990088,0.314217876 2.71312595,0.314217876 C3.18352508,0.314217876 3.6246017,0.384761725 4.03718179,0.526282276 C4.44976189,0.667802826 4.65584545,0.843513395 4.65584545,1.05341388 C4.65584545,1.15035766 4.62280598,1.2494653 4.5575531,1.3503041 C4.49230016,1.45114295 4.41300552,1.5017787 4.32049508,1.5017787 C4.27423981,1.5017787 4.18544631,1.46455927 4.05452752,1.3896875 C3.92360872,1.31481578 3.74023978,1.24037686 3.50524672,1.16550509 C3.27025366,1.09063337 3.00222114,1.05341388 2.70156218,1.05341388 C2.21588228,1.05341388 1.814866,1.16247562 1.49892632,1.38059905 C1.18257361,1.59872248 1.02481023,1.95836646 1.02481023,2.45909819 C1.02481023,2.80662421 1.11938564,3.09745545 1.30812347,3.33159191 C1.49727433,3.56616112 1.73391937,3.73581271 2.01929757,3.84054658 C2.30467582,3.9457132 2.61276863,4.07078796 2.9444021,4.21620358 C3.27603552,4.3616192 3.58412838,4.51698887 3.86950663,4.68274534 C4.15488483,4.84806906 4.39152987,5.11076931 4.58068068,5.47041329 C4.76941857,5.83005727 4.86399397,6.27193031 4.86399397,6.79733076 C4.86399397,7.62524765 4.64428163,8.24629353 4.204857,8.66046837 C3.76543237,9.07464317 3.17196126,9.28151425 2.4240308,9.28151425 C1.75333001,9.28151425 1.19042043,9.13133795 0.735715087,8.83141827 C0.281009691,8.53106578 0.0534504832,8.24889024 0.0534504832,7.98489163" id="Fill-6" fill="#3680DA" fill-rule="nonzero"></path>
                <path d="M6.87412959,8.96256796 L6.87412959,0.620896955 C6.87412959,0.522759664 6.90924307,0.446966131 6.97946996,0.393954435 C7.04969689,0.34094279 7.13162826,0.314217876 7.22526414,0.314217876 L11.392061,0.314217876 C11.586857,0.314217876 11.6846731,0.432946503 11.6846731,0.669965626 C11.6846731,0.776427047 11.659174,0.868430812 11.6085939,0.945976767 C11.5575958,1.0239609 11.4856968,1.06251484 11.392061,1.06251484 L7.64662562,1.06251484 L7.64662562,4.43598476 L9.48422982,4.43598476 C9.5778657,4.43598476 9.65018271,4.4710338 9.70076281,4.54025563 C9.75134292,4.60991558 9.77684194,4.69797632 9.77684194,4.80399961 C9.77684194,5.02480856 9.6790259,5.13521305 9.48422982,5.13521305 L7.64662562,5.13521305 L7.64662562,8.53321728 L11.392061,8.53321728 C11.4781725,8.53321728 11.5483994,8.57001875 11.6031597,8.64362173 C11.6570839,8.71722471 11.6846731,8.807476 11.6846731,8.91349934 C11.6846731,9.1588426 11.586857,9.28151425 11.392061,9.28151425 L7.22526414,9.28151425 C7.13162826,9.28151425 7.04969689,9.25303691 6.97946996,9.19564411 C6.90924307,9.13868939 6.87412959,9.0607053 6.87412959,8.96256796" id="Fill-8" fill="#3680DA" fill-rule="nonzero"></path>
                <path d="M14.712758,4.48590689 L16.2708669,4.48590689 C17.4158253,4.48590689 17.9889181,3.91092339 17.9889181,2.76095629 C17.9889181,1.62759212 17.4158253,1.0604731 16.2708669,1.0604731 L14.712758,1.0604731 L14.712758,4.48590689 Z M13.9568154,8.93897084 L13.9568154,0.607826494 C13.9568154,0.428253349 14.0525354,0.330820762 14.2435664,0.314217876 L16.2708669,0.314217876 C17.0112651,0.314217876 17.6089015,0.501655504 18.0629579,0.876967693 C18.5174233,1.25227993 18.7444516,1.8678968 18.7444516,2.72425524 C18.7444516,4.0782628 18.1488605,4.86515135 16.9576783,5.08535781 L18.7219532,8.7065307 C18.7522237,8.74716407 18.7673589,8.800468 18.7673589,8.86556869 C18.7673589,8.97173968 18.7219532,9.06742463 18.6299148,9.15306046 C18.5386945,9.2386963 18.4388839,9.28151425 18.3325283,9.28151425 C18.1950842,9.28151425 18.0613217,9.13864221 17.9312406,8.85333501 L16.1677838,5.18322739 L14.712758,5.18322739 L14.712758,8.93897084 C14.712758,9.03684042 14.6747154,9.11461172 14.5986303,9.17141099 C14.521727,9.22821031 14.4337792,9.25704688 14.3347867,9.25704688 C14.2276131,9.25704688 14.138438,9.22821031 14.0656253,9.17141099 C13.9932218,9.11461172 13.9568154,9.03684042 13.9568154,8.93897084 Z" id="Fill-10" fill="#3680DA" fill-rule="nonzero"></path>
                <path d="M22.4369031,6.50737099 L25.2420876,6.50737099 L23.8440489,1.59352205 L22.4369031,6.50737099 Z M20.953583,8.94083002 C20.953583,8.90041723 20.9577229,8.87173717 20.9651747,8.85565896 L23.3882481,0.594065674 C23.4420663,0.407210783 23.5915164,0.314217876 23.8374255,0.314217876 C24.0829203,0.314217876 24.2365101,0.408079861 24.2977804,0.59580383 L26.7146439,8.87608261 C26.7146439,8.88390446 26.7167138,8.89563718 26.7204396,8.91084631 C26.7241654,8.92648996 26.7262352,8.93778817 26.7262352,8.94561002 C26.7262352,9.03816836 26.6757289,9.11725578 26.5755435,9.18287226 C26.4749448,9.24892331 26.3706197,9.28151425 26.2625684,9.28151425 C26.1160169,9.28151425 26.0191434,9.21285596 25.9727768,9.07467027 L25.4395598,7.20090684 L22.2381886,7.20090684 L21.7008319,9.07640843 C21.6693688,9.21329053 21.5683556,9.28151425 21.3969645,9.28151425 C21.2884995,9.28151425 21.1870724,9.24935783 21.0935111,9.1841759 C20.9999497,9.11942849 20.953583,9.03816836 20.953583,8.94083002 Z" id="Fill-12" fill="#3680DA" fill-rule="nonzero"></path>
                <path d="M29.7149778,4.9512056 L31.3721985,4.9512056 C31.89419,4.9512056 32.2965757,4.79611364 32.5809997,4.4850534 C32.8646015,4.1744313 33.0068135,3.70389794 33.0068135,3.0743296 L33.0068135,2.92712364 C33.0068135,1.68375906 32.4618049,1.06251485 31.3721985,1.06251485 L29.7149778,1.06251485 L29.7149778,4.9512056 Z M28.9554184,8.96256801 L28.9554184,0.608629802 C28.9554184,0.428565348 29.0631047,0.330866187 29.2780668,0.314217876 L31.3956266,0.314217876 C32.1165502,0.314217876 32.6919742,0.522759665 33.121487,0.939843193 C33.5514107,1.35692677 33.7659619,2.01541058 33.7659619,2.91485648 L33.7659619,3.03752814 C33.7659619,3.93741217 33.5493557,4.59721032 33.1157329,5.01867501 C32.682521,5.43970156 32.1013426,5.6504339 31.3721985,5.6504339 L29.7149778,5.6504339 L29.7149778,8.96256801 C29.7149778,9.0607053 29.6767535,9.13868944 29.6003043,9.19564411 C29.5230329,9.25259883 29.4346642,9.28151425 29.3351979,9.28151425 C29.2275116,9.28151425 29.1379098,9.25259883 29.0647488,9.19564411 C28.9919987,9.13868944 28.9554184,9.0607053 28.9554184,8.96256801 Z" id="Fill-14" fill="#3680DA" fill-rule="nonzero"></path>
                <path d="M36.0381043,8.96256796 L36.0381043,0.6086298 C36.0381043,0.412355167 36.1637952,0.314217876 36.4151775,0.314217876 C36.6665602,0.314217876 36.7922511,0.412355167 36.7922511,0.6086298 L36.7922511,4.27651164 L40.0945009,4.27651164 L40.0945009,0.6086298 C40.0945009,0.412355167 40.2201918,0.314217876 40.4715741,0.314217876 C40.7229564,0.314217876 40.8486478,0.412355167 40.8486478,0.6086298 L40.8486478,8.96256796 C40.8486478,9.0607053 40.8102874,9.13868939 40.734383,9.19564411 C40.6580706,9.25303691 40.5703317,9.28151425 40.4715741,9.28151425 C40.3650632,9.28151425 40.2752839,9.25303691 40.2030522,9.19564411 C40.1304125,9.13868939 40.0945009,9.0607053 40.0945009,8.96256796 L40.0945009,4.97573994 L36.7922511,4.97573994 L36.7922511,8.96256796 C36.7922511,9.0607053 36.7542992,9.13868939 36.6779863,9.19564411 C36.6016739,9.25303691 36.513935,9.28151425 36.4151775,9.28151425 C36.3082585,9.28151425 36.2188872,9.25303691 36.1466556,9.19564411 C36.0744239,9.13868939 36.0381043,9.0607053 36.0381043,8.96256796" id="Fill-16" fill="#3680DA" fill-rule="nonzero"></path>
                <path d="M43.3827968,8.85291581 L43.3827968,0.604896961 C43.3827968,0.411110888 43.5065585,0.314217876 43.7540828,0.314217876 C44.0016066,0.314217876 44.1253683,0.411110888 44.1253683,0.604896961 L44.1253683,8.85291581 C44.1253683,8.94980887 44.0879989,9.0268042 44.0128573,9.0830368 C43.9377163,9.13970192 43.851324,9.16781819 43.7540828,9.16781819 C43.6488045,9.16781819 43.560805,9.13970192 43.489682,9.0830368 C43.418559,9.0268042 43.3827968,8.94980887 43.3827968,8.85291581" id="Fill-18" fill="#3680DA" fill-rule="nonzero"></path>
                <g id="Group-22" transform="translate(46.507524, 0.042701)">
                    <g id="Fill-20-Clipped">
                        <mask id="mask-3" fill="white">
                            <use xlink:href="#path-2"></use>
                        </mask>
                        <g id="path-1"></g>
                        <path d="M0.217272333,8.86845684 L0.217272333,0.664861742 C0.217272333,0.464080477 0.345618859,0.363258983 0.60231191,0.363258983 C0.819834271,0.363258983 1.02235509,0.548098386 1.20904094,0.918208061 L4.35936476,7.33631479 L4.35936476,0.652797634 C4.35936476,0.459771866 4.48771129,0.363258983 4.74440433,0.363258983 C5.00109739,0.363258983 5.12944389,0.459771866 5.12944389,0.652797634 L5.12944389,8.86845684 C5.12944389,8.96496971 5.09027322,9.04166301 5.01276526,9.09767493 C4.93484057,9.15411774 4.84524805,9.1821237 4.74440433,9.1821237 C4.549801,9.1821237 4.37853339,9.0295989 4.23101823,8.72368751 L0.98735149,2.19700377 L0.98735149,8.86845684 C0.98735149,8.96496971 0.948597507,9.04166301 0.870672826,9.09767493 C0.79274815,9.15411774 0.703155612,9.1821237 0.60231191,9.1821237 C0.493134023,9.1821237 0.401874641,9.15411774 0.32811706,9.09767493 C0.254359478,9.04166301 0.217272333,8.96496971 0.217272333,8.86845684" id="Fill-20" fill="#3680DA" fill-rule="nonzero" mask="url(#mask-3)"></path>
                    </g>
                </g>
            </g>
        </g>
    </g>
</svg>