<?xml version="1.0" encoding="UTF-8"?>
<!-- Generator: Adobe Illustrator 19.0.0, SVG Export Plug-In . SVG Version: 6.00 Build 0)  -->
<svg version="1.1" id="Layer_1" xmlns="http://www.w3.org/2000/svg" xmlns:xlink="http://www.w3.org/1999/xlink" x="0px" y="0px" width="100px" height="100px" viewBox="0 0 100 100" style="enable-background:new 0 0 100 100;" xml:space="preserve">
<style type="text/css">
	.st0{fill:#FBC929;}
</style>
<g>
	<path class="st0" d="M31.85,45.46c-0.51,5.75,1.6,11.28,5.81,15.19c2.39,2.21,3.76,5.32,3.76,8.52v1.15v6.16   c0,2.23,1.74,4.06,3.94,4.21c0.57,1.92,2.47,3.76,4.82,3.76c2.35,0,4.25-1.84,4.82-3.76c2.2-0.15,3.94-1.98,3.94-4.21v-6.16v-1.15   c0-3.2,1.37-6.3,3.76-8.52c4.21-3.91,6.33-9.44,5.81-15.19c-0.8-8.89-8.11-16.05-17.03-16.67c-0.88-0.06-1.73-0.06-2.61,0   C39.96,29.41,32.64,36.57,31.85,45.46z M56.64,74.94H43.71v-1.16h12.93C56.64,73.77,56.64,74.94,56.64,74.94z M50.18,82.14   c-0.98,0-1.85-0.69-2.32-1.45h4.64C52.02,81.45,51.16,82.14,50.18,82.14z M54.71,78.4h-9.07c-0.79,0-1.47-0.48-1.77-1.16h12.61   C56.18,77.92,55.5,78.4,54.71,78.4z M56.64,71.48H43.71v-1.16h12.93C56.64,70.31,56.64,71.48,56.64,71.48z M46.64,51.07h-1.51   c-0.83,0-1.51-0.68-1.51-1.51c0-0.83,0.68-1.51,1.51-1.51c0.83,0,1.51,0.68,1.51,1.51V51.07z M48.93,53.37h2.49v14.65h-2.49V53.37z    M49.03,31.08c0.77-0.05,1.52-0.05,2.29,0c7.8,0.54,14.2,6.81,14.9,14.58c0.45,5.03-1.4,9.88-5.09,13.3   c-2.57,2.38-4.15,5.63-4.44,9.05h-2.97V53.37h1.51c2.1,0,3.8-1.71,3.8-3.8c0-2.1-1.71-3.8-3.8-3.8s-3.8,1.71-3.8,3.8v1.51h-2.49   v-1.51c0-2.1-1.71-3.8-3.8-3.8c-2.1,0-3.8,1.71-3.8,3.8c0,2.1,1.71,3.8,3.8,3.8h1.51v14.65h-2.97c-0.29-3.42-1.87-6.67-4.44-9.05   c-3.68-3.42-5.54-8.27-5.09-13.3C34.83,37.89,41.23,31.62,49.03,31.08z M53.72,51.07v-1.51c0-0.83,0.68-1.51,1.51-1.51   s1.51,0.68,1.51,1.51c0,0.83-0.68,1.51-1.51,1.51C55.23,51.07,53.72,51.07,53.72,51.07z"/>
	<path id="XMLID_11_" class="st0" d="M48.96,16.78v5.33c0,0.67,0.55,1.22,1.22,1.22c0.67,0,1.22-0.55,1.22-1.22v-5.33   c0-0.67-0.55-1.22-1.22-1.22S48.96,16.11,48.96,16.78z"/>
	<path id="XMLID_10_" class="st0" d="M68.84,21.74c-0.54-0.39-1.31-0.27-1.7,0.27l-3.13,4.31c-0.39,0.54-0.27,1.31,0.27,1.7   c0.54,0.39,1.31,0.27,1.7-0.27l3.13-4.31C69.5,22.9,69.38,22.14,68.84,21.74z"/>
	<path id="XMLID_9_" class="st0" d="M74.46,40.9l5.07-1.65c0.64-0.21,0.99-0.9,0.78-1.53s-0.9-0.99-1.53-0.78l-5.07,1.65   c-0.64,0.21-0.99,0.9-0.78,1.53C73.13,40.75,73.82,41.1,74.46,40.9z"/>
	<path id="XMLID_8_" class="st0" d="M73.6,56.51l5.07,1.65c0.64,0.21,1.33-0.14,1.53-0.78c0.21-0.64-0.14-1.33-0.78-1.53l-5.07-1.65   c-0.64-0.21-1.33,0.14-1.53,0.78C72.61,55.61,72.96,56.3,73.6,56.51z"/>
	<path id="XMLID_7_" class="st0" d="M65.69,67.2c-0.39-0.54-1.16-0.66-1.7-0.27c-0.54,0.39-0.66,1.16-0.27,1.7l3.13,4.31   c0.39,0.54,1.16,0.66,1.7,0.27c0.54-0.39,0.66-1.16,0.27-1.7L65.69,67.2z"/>
	<path id="XMLID_6_" class="st0" d="M31.16,73.01c0.54,0.39,1.31,0.27,1.7-0.27l3.13-4.31c0.39-0.54,0.27-1.31-0.27-1.7   s-1.31-0.27-1.7,0.27l-3.13,4.31C30.5,71.85,30.62,72.62,31.16,73.01z"/>
	<path id="XMLID_5_" class="st0" d="M21.22,57.82l5.07-1.65c0.64-0.21,0.99-0.9,0.78-1.53l0,0c-0.21-0.64-0.9-0.99-1.53-0.78   l-5.07,1.65c-0.64,0.21-0.99,0.9-0.78,1.53C19.9,57.68,20.59,58.03,21.22,57.82z"/>
	<path id="XMLID_4_" class="st0" d="M20.58,38.91l5.07,1.65c0.64,0.21,1.33-0.14,1.53-0.78c0.21-0.64-0.14-1.33-0.78-1.53   l-5.07-1.65c-0.64-0.21-1.33,0.14-1.53,0.78C19.59,38.01,19.94,38.7,20.58,38.91z"/>
	<path id="XMLID_3_" class="st0" d="M33.14,21.8c-0.39-0.54-1.16-0.66-1.7-0.27c-0.54,0.39-0.66,1.16-0.27,1.7l3.13,4.31   c0.39,0.54,1.16,0.66,1.7,0.27c0.54-0.39,0.66-1.16,0.27-1.7L33.14,21.8z"/>
	<path id="XMLID_2_" class="st0" d="M50.18,35.24c2.16,0,4.26,0.61,6.07,1.75c0.19,0.12,0.4,0.18,0.61,0.18   c0.38,0,0.75-0.19,0.97-0.54c0.34-0.54,0.18-1.25-0.36-1.58c-2.18-1.38-4.71-2.11-7.3-2.11c-0.63,0-1.15,0.51-1.15,1.15   C49.03,34.73,49.54,35.24,50.18,35.24z"/>
	<path id="XMLID_1_" class="st0" d="M60.73,42.32c0.18,0.44,0.61,0.71,1.06,0.71c0.14,0,0.29-0.03,0.43-0.09   c0.59-0.24,0.87-0.91,0.63-1.5c-0.45-1.1-1.05-2.14-1.77-3.1c-0.38-0.51-1.11-0.6-1.61-0.22c-0.51,0.38-0.6,1.1-0.22,1.61   C59.86,40.54,60.35,41.41,60.73,42.32z"/>
</g>
</svg>