<?xml version="1.0" encoding="UTF-8"?>
<svg width="74px" height="72px" viewBox="0 0 74 72" version="1.1" xmlns="http://www.w3.org/2000/svg" xmlns:xlink="http://www.w3.org/1999/xlink">
    <!-- Generator: Sketch 50 (54983) - http://www.bohemiancoding.com/sketch -->
    <title>Favicon Auto Assurance</title>
    <desc>Created with Sketch.</desc>
    <defs></defs>
    <g id="Favicon-Auto-Assurance" stroke="none" stroke-width="1" fill="none" fill-rule="evenodd">
        <rect id="Rectangle-5-Copy" fill="#3DCC99" x="4" y="3" width="67" height="67" rx="4"></rect>
        <g id="Group" transform="translate(6.000000, 14.000000)">
            <polygon id="Rectangle-2" fill="#5A51FF" transform="translate(32.628704, 21.332519) rotate(-60.000000) translate(-32.628704, -21.332519) " points="11.6006793 17.0864709 48.1244944 16.5224953 53.6567282 26.055157 16.8563262 26.1425423"></polygon>
            <polygon id="Rectangle-2-Copy-2" fill="#5A51FF" transform="translate(50.525166, 28.853719) rotate(60.000000) translate(-50.525166, -28.853719) " points="38.5631895 24.6976652 62.4871427 23.9537018 56.8602349 33.6494975 43.8188365 33.7537365"></polygon>
            <polygon id="Rectangle-2-Copy-3" fill="#5A51FF" transform="translate(18.988222, 29.548588) rotate(60.000000) translate(-18.988222, -29.548588) " points="7.0790684 25.3015133 30.8973748 24.7395913 25.3761137 34.2533456 12.3347154 34.3575847"></polygon>
            <polygon id="Rectangle-2-Copy" fill="#FFFFFF" transform="translate(14.701223, 21.100896) rotate(-60.000000) translate(-14.701223, -21.100896) " points="-6.32680163 16.854848 30.1970135 16.2908723 35.7292473 25.8235341 -1.07115468 25.9109193"></polygon>
        </g>
    </g>
</svg>