<?xml version="1.0" standalone="no"?>
<!DOCTYPE svg PUBLIC "-//W3C//DTD SVG 20010904//EN"
 "http://www.w3.org/TR/2001/REC-SVG-20010904/DTD/svg10.dtd">
<svg version="1.0" xmlns="http://www.w3.org/2000/svg"
 width="260.000000pt" height="260.000000pt" viewBox="0 0 260.000000 260.000000"
 preserveAspectRatio="xMidYMid meet">
<g transform="translate(0.000000,260.000000) scale(0.100000,-0.100000)"
fill="#000000" stroke="none">
<path d="M635 2439 c-61 -18 -197 -95 -254 -144 -113 -98 -197 -238 -217 -362
-3 -20 -8 -45 -10 -57 -6 -29 -5 -184 0 -221 3 -16 7 -46 10 -66 9 -70 52
-219 83 -289 27 -62 85 -174 104 -202 11 -14 19 -29 19 -32 0 -6 84 -126 213
-301 151 -206 163 -328 46 -458 l-46 -52 -79 1 c-96 0 -141 9 -217 39 -73 30
-66 19 28 -44 177 -118 309 -121 411 -9 55 61 77 120 80 213 5 134 -18 181
-231 480 -143 199 -261 446 -289 601 -3 13 -7 32 -10 42 -30 107 -23 382 13
475 28 73 152 210 276 305 33 26 65 50 70 55 6 4 19 14 30 22 22 16 14 17 -30
4z"/>
<path d="M931 2282 c-86 -17 -234 -90 -293 -144 -116 -106 -159 -216 -163
-417 -2 -73 1 -147 6 -165 5 -17 12 -43 14 -59 19 -104 128 -307 261 -487 121
-163 215 -308 271 -419 35 -68 63 -131 63 -140 0 -9 4 -21 9 -27 9 -10 37
-114 47 -179 3 -22 8 -42 10 -44 2 -2 38 30 80 70 123 119 226 266 287 408 28
66 61 197 52 210 -2 4 -95 7 -207 7 -203 -1 -203 -1 -226 23 -12 13 -20 26
-17 29 3 3 119 6 257 6 244 1 254 2 284 23 41 29 80 81 109 146 24 52 55 158
55 187 0 14 -36 16 -345 15 -190 0 -345 2 -346 5 0 3 -2 15 -5 28 l-4 22 399
0 400 0 30 37 c60 73 124 233 144 361 l5 32 -510 2 c-468 3 -512 4 -522 20 -5
9 -7 20 -3 24 4 5 262 8 574 8 l565 1 63 67 c34 37 78 98 98 135 35 67 82 212
71 222 -2 3 -329 5 -726 6 -554 0 -737 -3 -787 -13z"/>
</g>
</svg>
